<mxfile host="app.diagrams.net" modified="2021-09-28T18:25:15.681Z" agent="5.0 (Windows NT 10.0; Win64; x64) AppleWebKit/537.36 (KHTML, like Gecko) Chrome/93.0.4577.82 Safari/537.36" etag="d1Gw81zY6JtB_h0JEqZt" version="15.3.7" type="github">
  <diagram id="UdUzZ_iiyCO9LNhSqkFO" name="Page-1">
    <mxGraphModel dx="822" dy="435" grid="1" gridSize="10" guides="1" tooltips="1" connect="1" arrows="1" fold="1" page="1" pageScale="1" pageWidth="827" pageHeight="1169" math="0" shadow="0">
      <root>
        <mxCell id="0" />
        <mxCell id="1" parent="0" />
        <mxCell id="3a9ptMbxA-lgewEK3BO4-8" value="" style="html=1;verticalLabelPosition=bottom;labelBackgroundColor=#ffffff;verticalAlign=top;shadow=0;dashed=0;strokeWidth=1;shape=mxgraph.ios7.misc.iphone;strokeColor=#c0c0c0;" vertex="1" parent="1">
          <mxGeometry x="340.5" y="100" width="219.5" height="400" as="geometry" />
        </mxCell>
        <mxCell id="3a9ptMbxA-lgewEK3BO4-10" value="" style="html=1;verticalLabelPosition=bottom;labelBackgroundColor=#ffffff;verticalAlign=top;shadow=0;dashed=0;strokeWidth=2;shape=mxgraph.ios7.misc.more;strokeColor=#a0a0a0;" vertex="1" parent="1">
          <mxGeometry x="620" y="280.75" width="35.25" height="40" as="geometry" />
        </mxCell>
        <mxCell id="3a9ptMbxA-lgewEK3BO4-11" value="" style="html=1;verticalLabelPosition=bottom;labelBackgroundColor=#ffffff;verticalAlign=top;shadow=0;dashed=0;strokeWidth=2;shape=mxgraph.ios7.misc.more;strokeColor=#a0a0a0;rotation=-180;" vertex="1" parent="1">
          <mxGeometry x="246.25" y="276.75" width="29.25" height="44" as="geometry" />
        </mxCell>
        <mxCell id="3a9ptMbxA-lgewEK3BO4-53" value="" style="shape=rect;fillColor=#eeeeee;strokeColor=none;shadow=0;dashed=0;fontSize=8;fontColor=#ffffff;html=1;" vertex="1" parent="1">
          <mxGeometry x="350" y="180" width="200" height="260" as="geometry" />
        </mxCell>
        <mxCell id="3a9ptMbxA-lgewEK3BO4-12" value="" style="html=1;strokeWidth=1;shadow=0;dashed=0;shape=mxgraph.ios7ui.appBar;fillColor=#ffffff;gradientColor=none;sketch=0;hachureGap=4;pointerEvents=0;fontFamily=Architects Daughter;fontSource=https%3A%2F%2Ffonts.googleapis.com%2Fcss%3Ffamily%3DArchitects%2BDaughter;fontSize=20;" vertex="1" parent="1">
          <mxGeometry x="353" y="160" width="197" height="20" as="geometry" />
        </mxCell>
        <mxCell id="3a9ptMbxA-lgewEK3BO4-13" value="CARRIER" style="shape=rect;align=left;fontSize=8;spacingLeft=24;fontSize=4;fontColor=#aaaaaa;strokeColor=none;fillColor=none;spacingTop=4;sketch=0;hachureGap=4;pointerEvents=0;fontFamily=Architects Daughter;fontSource=https%3A%2F%2Ffonts.googleapis.com%2Fcss%3Ffamily%3DArchitects%2BDaughter;" vertex="1" parent="3a9ptMbxA-lgewEK3BO4-12">
          <mxGeometry y="0.5" width="50" height="13" relative="1" as="geometry">
            <mxPoint y="-6.5" as="offset" />
          </mxGeometry>
        </mxCell>
        <mxCell id="3a9ptMbxA-lgewEK3BO4-14" value="11:55PM" style="shape=rect;fontSize=8;fontColor=#aaaaaa;strokeColor=none;fillColor=none;spacingTop=4;sketch=0;hachureGap=4;pointerEvents=0;fontFamily=Architects Daughter;fontSource=https%3A%2F%2Ffonts.googleapis.com%2Fcss%3Ffamily%3DArchitects%2BDaughter;" vertex="1" parent="3a9ptMbxA-lgewEK3BO4-12">
          <mxGeometry x="0.5" y="0.5" width="50" height="13" relative="1" as="geometry">
            <mxPoint x="-30" y="-6.5" as="offset" />
          </mxGeometry>
        </mxCell>
        <mxCell id="3a9ptMbxA-lgewEK3BO4-15" value="98%" style="shape=rect;align=right;fontSize=8;spacingRight=19;fontSize=6;fontColor=#aaaaaa;strokeColor=none;fillColor=none;spacingTop=4;sketch=0;hachureGap=4;pointerEvents=0;fontFamily=Architects Daughter;fontSource=https%3A%2F%2Ffonts.googleapis.com%2Fcss%3Ffamily%3DArchitects%2BDaughter;" vertex="1" parent="3a9ptMbxA-lgewEK3BO4-12">
          <mxGeometry x="1" y="0.5" width="45" height="13" relative="1" as="geometry">
            <mxPoint x="-45" y="-6.5" as="offset" />
          </mxGeometry>
        </mxCell>
        <mxCell id="3a9ptMbxA-lgewEK3BO4-26" value="" style="endArrow=none;dashed=1;html=1;" edge="1" parent="1">
          <mxGeometry width="50" height="50" relative="1" as="geometry">
            <mxPoint x="270" y="250" as="sourcePoint" />
            <mxPoint x="630" y="250" as="targetPoint" />
          </mxGeometry>
        </mxCell>
        <mxCell id="3a9ptMbxA-lgewEK3BO4-32" value="" style="endArrow=none;dashed=1;html=1;" edge="1" parent="1">
          <mxGeometry width="50" height="50" relative="1" as="geometry">
            <mxPoint x="270" y="350" as="sourcePoint" />
            <mxPoint x="630" y="350" as="targetPoint" />
          </mxGeometry>
        </mxCell>
        <mxCell id="3a9ptMbxA-lgewEK3BO4-41" value="" style="dashed=0;outlineConnect=0;html=1;align=center;labelPosition=center;verticalLabelPosition=bottom;verticalAlign=top;shape=mxgraph.webicons.facebook;fillColor=#6294E4;gradientColor=#1A2665;shadow=0;fontSize=8;fontColor=#ffffff;strokeColor=#007FFF;strokeWidth=1;" vertex="1" parent="1">
          <mxGeometry x="420.5" y="270" width="56" height="60" as="geometry" />
        </mxCell>
        <mxCell id="3a9ptMbxA-lgewEK3BO4-43" value="" style="dashed=0;outlineConnect=0;html=1;align=center;labelPosition=center;verticalLabelPosition=bottom;verticalAlign=top;shape=mxgraph.weblogos.youtube_2;fillColor=#FF2626;gradientColor=#B5171F;shadow=0;fontSize=8;fontColor=#ffffff;strokeColor=#007FFF;strokeWidth=1;" vertex="1" parent="1">
          <mxGeometry x="280" y="271.25" width="60.5" height="57.5" as="geometry" />
        </mxCell>
        <mxCell id="3a9ptMbxA-lgewEK3BO4-46" value="" style="dashed=0;outlineConnect=0;html=1;align=center;labelPosition=center;verticalLabelPosition=bottom;verticalAlign=top;shape=mxgraph.weblogos.instagram;fillColor=#6FC0E4;gradientColor=#1E305B;shadow=0;fontSize=8;fontColor=#ffffff;strokeColor=#FFFFFF;strokeWidth=1;" vertex="1" parent="1">
          <mxGeometry x="560" y="270" width="54.75" height="60" as="geometry" />
        </mxCell>
        <mxCell id="3a9ptMbxA-lgewEK3BO4-51" value="" style="dashed=0;outlineConnect=0;html=1;align=center;labelPosition=center;verticalLabelPosition=bottom;verticalAlign=top;shape=mxgraph.webicons.adobe_pdf;fillColor=#F40C0C;gradientColor=#610603;shadow=0;fontSize=8;fontColor=#ffffff;strokeColor=#7F00FF;strokeWidth=1;" vertex="1" parent="1">
          <mxGeometry x="482.5" y="270" width="60" height="60" as="geometry" />
        </mxCell>
        <mxCell id="3a9ptMbxA-lgewEK3BO4-52" value="" style="dashed=0;outlineConnect=0;html=1;align=center;labelPosition=center;verticalLabelPosition=bottom;verticalAlign=top;shape=mxgraph.weblogos.chrome;shadow=0;fontSize=8;fontColor=#ffffff;strokeColor=#7F00FF;strokeWidth=1;fillColor=none;" vertex="1" parent="1">
          <mxGeometry x="356" y="271.25" width="60.5" height="59" as="geometry" />
        </mxCell>
        <mxCell id="3a9ptMbxA-lgewEK3BO4-54" value="" style="shape=image;verticalLabelPosition=bottom;labelBackgroundColor=#ffffff;verticalAlign=top;aspect=fixed;imageAspect=0;image=data:image/png,iVBORw0KGgoAAAANSUhEUgAAARYAAABqCAMAAABOBI5zAAAAY1BMVEVrQ3LyHivvJTOcNlnZLUD1UVsqVIkwWJIUXKEmaak3da8lYJ5JbZtQe6tJTYT3cHhTiLtwjLBrmMR/ocX4jpSSsM+mutKzyN380NLa5O7+/v7////5+fvt7PHL2Of6q7AAAAAB6IASAAAAIXRSTlP//////////////////////////////////////////wCfwdAhAAAACXBIWXMAAAsSAAALEgHS3X78AAAbu0lEQVR4nN1dh3LbSLbtgEACYpA0ll3e8tb7/88a13gtz0hiEAAC6AbeDY1EASRl2TuevbOWxIAOp8+N3cB6/yf++VIoafxc1LUQlRB187YUCv7JsPRq75Utvvb7v4wYKfO6rurK2ro++20pA6VVWFf+Za3/w2ApNIBh66q4AIq+1PWBfkvP1/Nan/3+PwQWa6oKmFFULz6pRbgTgiYqBSpRDy+p6AvCCrHMJX27LMVeqJmeVydn/mvDUiqZV5UtpB2+X4diB1BIUcGkC0kmZURqdxl8YY/Q1ZbRqVJ4PfNPQPOLwmJshXAczbYOGQwrCoTklW0CRnIPDAJwCnh5OOy173vh6Hd/MViK2j/YujQDy6F1i8ZrwZALX5T7fmvAIABH1za2wtqDUPPYvrTDvwosSA97ZDscHKAor6cGifxk4bpgoT8fG2jAJtV1DKypkkRGsTr6/O+GhayHPaIHKMub4HDivS/pd1XdfRtxXFbspbShFHWSqHg2cE9/Gyzgag/2yJiS7WBleQscTrz3bSPq0++jX6lrWWgDyFT7/Sz0OzD++7CAutT2yJo29Hi17Tgh8gMgrgojPJhjKSfjHOuQORxktGje/O/AAh37LiYdU5cfRI+h3AAq+gGbXcIkF7sTXwVklJ2JXoh4HhZjvfr16BlJQAiMwcTLkJSs6Q9TFxbwOrHIhV+aR+xvDrDsqfECRn8u6K9kUIjOWZ+fb5ZQn/BfIJTE/0m4vuxdarDXHDUVg8xKjOHgBGPSH2FNR0TeKRiVElYFd/cwOkDF44j/2M2Mii7E7BWw2JR+1fDf4XtGC3orODpvYtIfri4sd93s1ZJVJuOXOMfy3OXGg8W2BzBF6JPOwpIyHEv4l1PWcU6AEA4H/DqsGUakP5oaL8VzqCj0beu+JVFBJdT+zOUyskpX34KZOOzW87OwmFTUCEbTbJN9kaBz7dw9ZRv40aU4SB2J1L4uFZ6UFQ72GbqNZkIk/B5NTt2i7T3XC4B5pe+xket8o8JzsOQ1mo5O6n6cwSnrd8pyjgjH6mUI+l2CE3nGwVzBeLcAUaXA3CS1F6Cf/nz+chmkUfBtJe5vrg7nYAH86xcT9yK06+WbFtq7daSfCEFfKVJDczRSadCewR9ZDMMPed3253oARxJ5OVwxBwMQ36/OwHJMFpjPx4oJE8TC/+6F7kWgkyHotEi9isETgzsrw82uyX14pBH+uN0asfODpoP9qaCFBLIj+HZYiX2yDvNzAckLsshPZc+ml+gJv0cYFZ1zCGqnQ9Cxa1doXUtFlk2V8XK3+8Rjop8xgGODd8WDeFguaQGr5Cwq7J39LBRzLw1scAaWY7IsF0NHp7wjLl0mHJen5PohBK305a3Iu+MoxMZrHpRGjyldU4Fnta9KD+BX8focHcE7g6sNNjeB8E2RRqdhOSILUIVeeRlyVvnghKKzCzEmXVwOs/LOtIL+qnNYHSrK+qLU2Aii4omSwqp58zHysVTcR+niGG8F1kMk22OjKEOhoN15sY+VCBJIGU/CMiSLvMP+Vf7sGr2Gf+mpyycFO907vPXJVhpLBg7rCw6FoxNYlwMH0joMOZb60w0qQ3BmsyMPiXGMvJlVhGDwTplssBDQxBX+jsoEgoulf1qJhmRh+np/Ne/EGJwYbFOL1/kkjH1cXA5uEWKtQaXWi9YQOIYJWE3w4Y3SVhWaCxeddIOyaXpHcDUDILTaWEpZGCGF9AhKe1ml0CL1uoRh4G/f98FkBeJ0lDskC9k189j2OIdewn/nPs3pVT4JR+3icn1r2lgL/H65X8w5symDd7ocmpHg9oHzv2FXf61FG7+108SmD/aAQGCxIIF4YBhn2J7BAe985XDwHaYnYBmS5RZRKbsYesFa7Va6fK2T5RkrREV9weTXQ+sYxP2R03dUCWokdWjRjKL38Y4WoMIJZ4O2Sa8KN1bKiDgesOUBnPrMw8Zag0PeeXY0vBOwDMjiIbUcKmChiuBoC+pEneeFWJiIjjMx833sYC/eIwCD1WzWts5zxl0uocOPaBuQGNKD8K3qUle1EBWNLYJmCja7rgXEqKI1tGzOarBks7nsEifwztHxhto0LEiWbjsXXardtwOM2gFZP69m1kWWl0mN/iMM3dCL/b8GtqUuLCyInIMtVVmrHPXuthIVqlURUzwPMt8046s0o6Bw1d3YXKPIP3LTac+wH7oJkHe+Oh7iNCxIlhYWNCw1oSvfdfOvtwSc8rtRXCBSfO4FH7q84Ut1YTwtvB1zoAZbKv7qMagGAtEXF21fcp5yeyhkm+fd95syCE6w6uIBJ0uYxMYNwBOzFxWZSVgGZPGwU3bMix4rXEEWjZp/iQ5BCLLOvQqc7cc2LLQxxe0GzeNysKR/DpvMgaThMJokQLhITrEchbhONI+N7YxQDhVd06RmaOid7aFCy7FMwjIgyy3846h/hhf4SZwjwGzoFCrml6l2ujl8yhVHWFX1Ie+tD/7Jal4/9peUiDgTh957Xz4MSEkveE4FdYG0wBSxdG+0/GGfDiFJBUqa1nhN5mYX8gSGMgXLgCxLGLl+arsp/iMebgNWWeHIMm1ZpCbL7b3v+Vvb/KncWvOr41pRhLHa7MAMCo1Q5o/ODmmZ5921tGYh2pCHB7GMReMtmD8cAatbjM5lGKVwjXpsRiDiJqfsZAqWAVkQi4ReRRJdJmRCVN7gdqfJQpkuQvrViFZttHE1PqWy8nBHf7agykjLunCHLpwVu2JYKqyb3zEqtSnzZnQ8AyIuTg8txrplC6dIvKTy1kFqkSyHurlcj2xDT8DSkkUCF3yMSt2S4fji2P+Ck+W30Io3ZIGIDBYqwVKMvPEw0iOK2Pf3uJxKHSx4GQpLYWI4eWcBnJ7IK1xv4fGU565RxhNddkimWhXPfV0jt8TBDMQjWJ1EBmq+inUopU8pn/ad+jZk0ZLtwmWwNGTxGmVm5Y/cQpdobNyaQvTOZPE+IkdhOAFEZRVg0tmBilKbnJRkSbPNGVO/D4taufJ3SE2jf6tUs5cxd6+EfRqYYo4nk+ZPHDVi7UwLXavpU6xcq3vDBTDVhMoRFVouhKUhS8s7l8K0dFPNUMRVxakR9NZ3E22eoyzmyPgRUzn2ekA02zcuDmkq6K7OBWv/5zusrDcDpeCUDdBMeyH5b45PSYfwT8Qc9dWNhWDP27Ef4GPzbbHGhItkuA1yDpaGLIvGNDJZZh7uidmAhs8GVyLtH7Dm8LIVLTNKS35jDGiBmkE0joKHx6CjeSSS05u09pFoDI8L4XJajDiymD22E9Dtn1vWIcVOcla1fUlAiDWn7mWJo955ChYgi6a2UB1J0XncBzboYQ+piMjifSBUVGksXBco7QFy9Z+uOY7kLV7sI7lUexzSFY1Uq0r688fKpY6oNQaNp21Awjco9F+T/+Il0x3IGI18qI1BVeb2iYyKRo3L96L+j9sgowiMvglIkKFGVLzH4085Uub4SeCyZcuYtkbSA4+dSh5LI5vEJsPRkQqpteWJKB6gWymeIC6t6uwCrb2nBOsm6wrr4bs+xYi5rtpE+1KKsjdumMjYwbc5ngpug4xuw47B0pIFF+xF4YxsbFM6QlQ015LLbT/UOhxW+spde8CeUYXkCvn99V27/+mGlLUvNqt2TmhaML5hnvA40yZEpWF2LXDPXfDkdIjhYtOixEi5qym0vJAxWFqy9MpFnVxxUtY57BJb1vvjL+5ug6ZmqK0w+DEus6KquPuyMy1l+2J/13xIpgUjRWclTNtpMxG6yu+mL3YLQJL+dmTk/jvNOS6O0jbICACjsJwhS8hmjDqbSbfwXpPAyHYUtTINXXKP0swVlREM7ts6YjnHTDignalEs93DbmXd+hRei75tMPRBP24/HKD3a9Qql3gHbkgoeEBufVTBiot+Jt2XEVgKRxbviCxS4gEMF2lwhLs0PGCHSuSjuX9ur/EcXZ5v0EBhQUIUO9Ga0cbU8sSReCHSw7YD286FMy3cKxPneQWzty6kU72fSAyfQBhkTmzAMnAO5UcDOa3MHhmdsULLJCxm78iCan6AYFzuqJW478ksr14T3BIq6jeDGFW+s4Xw92JLf1aYAi4oyfwPcEc1+u7yOIaFTEsXtms3PTYtfQtQPfVKXmHPwnRNDgs4/DP3KR7EKp/b3hortEzC0pCFbAbtbnG7A9vE03JnqmpCZXblvK1jMLpuPWOIEBUcuv87F7hdFuqWKmtHsl829EBqVrgwSW+YTbjHaQkPkt7TUWNNQ049GemCVMQyKffLdq580MNtg1wGS0sWaIdBd2Fl/xAH65ZLyPUDceXKsdqxW6KTEvNGoahUVeEOeacnDhbOZwgHjVlUWy4gerrihWjebCTWZLg8S6o483Ms6YUu6HOzdaSKeQa7WaA1mDDp2CXbdb0AFiBLwgjUX6kw7MoHSzrzlHB4wZbFMZBLpCtX59kP0l+5cMUCCPncODs9cavPfKDojfY76CWp1KJy8StihtW51daNEsIiO1NSoRE2iIKOItWVg32IXrSWDp3Q7WxxNNoaA/DOk0fHjmFBsjQG33zB6gZ7EzQjFVb3byuuErcBDLleseApGpfH9UubDrzfLJO3My1u1J0ObTEDZXUg11318xkESN+hPZ95GtyWJg3BvNrVQB0oFayjvmn7BXNSvfvWGwgaA0S3tw1yHpaOLDgSQMXdcYLMwJHKWTtW1hpNC0huW+dNxq9WDhXbVpbqFOY23/VNC1srt+mC+S0C5fY7sDnklWk+FBuMGs3seOtCqC/1t5tZR5TPn/plh+oBKG9Wu9ZIz9yu39g2yCQsGLN00QEuHkNAm3/oZW86snAAk7ApKOqqaLPFRehGZhvS4xchwwS64AydaWG2OEMtnQ65iBcTAeCVyhTeH4UmIzX/HjsAV/1pRP0gF2scaLiByKSrbCpjHutDgAhnjZELXR8nvPNLWIqqRxavqzVFLtGSuK3XJ4srTx168U0UNqcGKZ9ythEumyFdOvPRwEU/KXrz2pdIpAReVtf0kjdcfucDVDTfzI+T3smjQVb8xyfcrG0+fEA0ZTTngt7MdwfppnLnMViGZMG6hXN86Faw1rSwR2Q5joJVPGuDBkqh1dy5UpHizg+GuIOdMqdDaPy271C/fF/qGZ5F237sswM72u3ozAEfOXiYnFM93OH8HevOYF59MspufXEb5GJYBmSh2h/DglOlRGzZkiXifGOQCc18sJRdDfqBssNKzB22RBdspR/6N+dRLAdu8rp5U5vPXT27ckcMzMM0GpPy0JxIc8uB63uaLENYhmTBypIrBKN3xsaWLVmIP62nJV+JRQGeZEXbeOS4F7KLQYkucdlGWzn6khJcKVxL9caqH13tRP3HjUfa8MoTES/E3Lfqh+My7rzpiSsGsLwgi3LFfeOsN22H0FuMShNsccLVeQP8MKWyC0X8TbBehOyf3YBq9HRRm6xl4qE9UafMA/RXfwc1xmW3w91/4YwyTW5kG6STPizFgCzoczhPJu+MAJANdg6beOEMw3EHiArVsCXaIlE1WpTOK4oOwVrSXZSD1KXaQ6B044UiufQMJ/n6wRt8LnhU6oEV9DD0PyF9WMyALOhzmCyyOQaNNpArcC5JnN54tuRRll02TEMrPArwzR2a1L4/Ild6ET00IGHFUuTeeOfa8A2NJ/fEpwstTnofHpHFNnkyWVc0MtQVO1B3DsX1nQ+rFhCmc6mzCQwaLSZlUn1EwMqEl7FDExp8266PB8Un5m1lQVGah/fkTH0pHt8G6aQHy4AsfO6I/0Q7gnEZnhJxGZIrqzVRg+magVD3t4qr2xLxLEDzpKxlqD3eJt8sm7FqtTl7jpjxYDh8ureXREq8XcXdreIEnyZQ4Q0qLldFeLxgDJupbZBOuvkAWXrlr2VHltY7r8uGLFhJw8S1sZDJFRFCqexQgkIorvMs8RuP6NCWqkso9im4S12aF+cdj4VuzWU8Gjgw5JVSeXZsrdtTHHz/Y0VbFg02g1t5+LzpKelgAbIcemQRTYDSemcCgV0PQm1UVxWzWzxw484WxO58AN0U+VAnQb+0qL/W5l6K04i0N3I3eMhw+ISE008D8B1E1u1TETY9aNA726lKC0sLC5Kls2K96nbrnZGMdVcqxLMm3fCqrqo+o0xAhuTNjXhsgzJlnHucBqVliAMEn4kAAZEb5flnIwxEwwotjcoo6mdoaIaT2yCdtLDYF2RxHg2tq2kGVXXjQxaMWfNIPvuBsyPVI5ZtQGkQkfTUMTLEQwwACTXkAK8EYkQ8mEBZWTpWBNCEiZZ6ahukfxULnkvsyIIBiovrNZgW3qQ8SvJKtKXRi60XGdbX7Qs6WgNKo0/YkY4gogfI6SdDvFKQGsvcGhiOJTd12juLDpYhWbqKAhVHeZMyLoeBCh47ivtnlQRuMfu9IK1whKsneKKBIWHPhGBJzQFy0f2Fr5IQY+6MDwBNbIN04mAZIYvjwZXpH+opepfuIM+wt0nLFznHA69NIeq01hBFrG3SJdYYtqg/HpBWAlAoU5bZ/KxuOlgmydIaXM5mnOBelE8pjJ3FOWiIqwUwsBUgMq01GIcwReiV8r1GY95uSC4Qz5svz5+V5QENySL7ZBGDI9K3/IsdkrnH1M561EbTlbtnYUwaijiOqMBXiozfTyTIqJy3W/yNIVlw1fyFQhesqULAb5tgYFvwfsD72+GMlB6PW3t+l177/rnH7fzNQmMbkoXmbnw8wUeWojl89zi4w4niXixkeI3THg1cXwQi4d9FkVcJwTIki6j9frWwag641N9u2gWmWwRRdju6DWrkxt3jUPXH+92fKDjMI7II8dkd+VKyFOaxne942l+bo3ouR2ZkQ7pQ1T2+65emSE/opN6QLFgjhkjw9ZVC5IfDozkWi7lMcOnD3n4h8UbIIqYDsFGhylCb+/N7FJm52P2/4nh/rHgjZLlQXJ3MVYa63B8r1meTjl9cvFGyTAqENLUgMPiSrjIk5Uxq2Sa7/3DxkCyB0dVIti9F+5wJi8/kaJ/IgWA0QIL5+B+CoxEPT0UXzZzczRziRfHad8/ZaIQenSkhWx6tk/3zxTP9FNjS1Mc1SkoRYPkUH7TagfEPNKeXiKdW9CQfp0Tt9hX+ICUCNCAJGDxxNvxfBaOTiWc6DuWS7/wcsWkuwvn4UfPnq583rl/AUuZ2siqU4b2rhTc6yEN+tpj0/fLTYUl2N4NFtZvjZ8Ycyqn5pZt4psun0WjbJkRi+3NC6B8MS17kftC/7TbfHj0mKc2PL0liMS7ZZrHonwsfyEGIMiyL7fvvH+wJeQsseREcaXe6rUWR9p4NiaMfkuU5OCbL1KPy7Iaafx7PLw+BDEW5Pb57/wfJG2ApnvPVEJZkuwggarZdo3kicdPK5M0DRg/1EZImnbLohxrPWsDnY7DYPMQgIbgZ+ewHyBtgscfPocu26+go6jFilUKMuM3docYyE0cqU9YTC24yyXceybHPCzoP0B6OKezgjvm+pOnN68sZb4AlFUNY7CaGURZpr80yi5EdeR66qVWFrIaDnLxJQxV0MOfAmzqWHyhRWAeiGZw1tvscH1cC9n3doJNztmqSJK5+ECx2yvdVebcmeR4ng/7SGs+K14Ww7fJWRZTCm16jbGXhjgibnE6b4qindChrlIdOwz+JRK51kSULPpDODbnzGPm+WFOJcCvwKSJ0YHMbLrD2vM3j8bDntIxdUt2HE7A89qZg5KLsz8g8B3Q/rgg4M8g1Pm5F+qF7+gZ+JU1Yh2C0jMoWJtbpiIVYGmwyQ284lg7xKSb2Ccs4eZQn8GZWhZ4hQAw/RA2im/UM1iLb4LMENuJOI0D5FV0XB9n0GfZXwZKMvAeD8nNT9DrI8Hlk8LZx1rSs6UOn5ECDaw9caNq7NQVAkHRsEEZLD68ySbHadE1mT2vPbnKXbyl2zHS8GVD5IL6K5FnWer8Xa6+o4xDALYrYI1Ts13WUba6fguoJ9C7M8tvn3BcVoOI/TVqdV8JSjL2bUyG3q33bYp1ew6/H2hnRyj1Ckn6BkV3NUVfoxoMc77tHEN5/xcciAudXKpuLMk2ui87PVBuh4bpubZsKIXxffFCZrHc3jwGQssjCLRWKauwu2YpVlmN89z4X/mYtNpkx17ooqvKxDtUWXGESvJYv47CMfTEWai/JH9pnP8IoC5+wtmntruE/vPealGSBeNQSyZI/ince8me9RwbALGP5FM/tLo/rUrCnRa6IwNt4eST5bFW8T/jIUr6PSl+ZBFDxa5HdeE/5PWaxRqyz/ZNXClCT9Wbrx6oQKahclsuVts9rufeLor45JA/hq5OncXP0wnRbG6zACJL1yPd4FP0gsgXa3fW27ZOfc4AIbYDcf75XeYmn53JYVQV+CsAog6KqH+tYbUWJxFjc3z0n2Z7SAfXha/kENs1/4ljEBMWzp0VhtqugLtNMyHW4FyWkErGYV/tQgOONnnNvDpoUi6Ccz8EJrmGA6wLiSTB0T3Ei/EXoqfMPNL0IliA/hiXdrAJRJmT3Ye3f08lPXAMj0pVuoGyifEAgBJXOfZiF8ezeF0UyR+O6ubHFPTqL+mZffItz/36lF2lCD7YRYSHqeL4V2zX3Htzc598iUUoEItkufeg9l9j1fC7A5djSBPqd1FkwBxh+K2BsQYRmROOP1N8DXyMIqfXkvVSvhCXiqrWxDQ9A62HkhmxO/lhfH2aIAd/o3zotT+z5ZCWgImfbOEk9P9ps/PRqpr/un6O63KxCE6dRWhc3YSVnKikWkVDvrKuHB9cqtAlNnHG+MYfSp1hsdcWFr7i7i86aiM8dzdmiIiq33RyC/Dr8Hlt7AhYW0IRbxsV+CwrUAvq5rxdmv1hUdGQXHK6yuaTufVk/43MlsiTM6937MsnBHAVFsZj5YlHMw3sBIHirVWG8K42TyQPS+a5sMMcQ8X3H1DBsI2Ktm284kUF2yoxCQvpdT9tsZBqWBMhhn8U8MJuVKGSxj1ThYSAg9qLIH6/2z4tsd73ZbgWffvJWm6ScQyZzcwAzoMJbHw80airrAY+LleS+2jUdMYTpfnVpRGqT2+kPs/TD12r64/MyCUuWCFlvwCDYzTxKhc7xSLrAsOr5wz1Y2qiAAPV6Xmde89iOSBZpEUSeClcYyoTE67a94IJaeLU5TsknpU5PuJd8c1O+rWQydjEESqAyEBtBXpckRRhnmTT5tTbiyS9r8IFg6yOxzvHxQVEvHp7PI2KEniqgnBGzEZdmdWDI1tOfPq/09mKAJ9p/KfQ0tSVEmfm1hZD3GnRGZNf0KPY4DWDkZOX0SILwpkpZmRaLS1VInWKfyYONvH5TIWYMFg/czEwZUXxQWnv4jDzwEtDLHGzlXf3TDh2YJL7YdfiLF//fOZ14KxN5bytPjaaKQVmEEK+h+SOFmJkYe0F6/MStkPD68q1J72Qw8p1K3G9/5D3fx+d/6UWrEnr15n4uEPX9YcYPl9H1ifHtn7jd8OvL/wOp2aTzN2WFngAAAABJRU5ErkJggg==;" vertex="1" parent="1">
          <mxGeometry x="388.75" y="182" width="125.5" height="47.85" as="geometry" />
        </mxCell>
        <mxCell id="3a9ptMbxA-lgewEK3BO4-55" value="" style="dashed=0;align=center;fontSize=12;shape=rect;fillColor=#ffffff;strokeColor=none;shadow=0;sketch=1;hachureGap=4;pointerEvents=0;fontFamily=Architects Daughter;fontSource=https%3A%2F%2Ffonts.googleapis.com%2Fcss%3Ffamily%3DArchitects%2BDaughter;fontColor=#ffffff;html=1;" vertex="1" parent="1">
          <mxGeometry x="350.25" y="400" width="200" height="40" as="geometry" />
        </mxCell>
        <mxCell id="3a9ptMbxA-lgewEK3BO4-61" value="" style="sketch=0;pointerEvents=1;shadow=0;dashed=0;html=1;strokeColor=none;fillColor=#505050;labelPosition=center;verticalLabelPosition=bottom;verticalAlign=top;outlineConnect=0;align=center;shape=mxgraph.office.concepts.globe_internet;fontFamily=Architects Daughter;fontSource=https%3A%2F%2Ffonts.googleapis.com%2Fcss%3Ffamily%3DArchitects%2BDaughter;fontSize=8;fontColor=#ffffff;" vertex="1" parent="3a9ptMbxA-lgewEK3BO4-55">
          <mxGeometry x="50.75" y="5" width="24.5" height="30" as="geometry" />
        </mxCell>
        <mxCell id="3a9ptMbxA-lgewEK3BO4-64" value="" style="group" vertex="1" connectable="0" parent="3a9ptMbxA-lgewEK3BO4-55">
          <mxGeometry x="120" y="6.5" width="20" height="27" as="geometry" />
        </mxCell>
        <mxCell id="3a9ptMbxA-lgewEK3BO4-62" value="" style="sketch=0;pointerEvents=1;shadow=0;dashed=0;html=1;strokeColor=none;fillColor=#505050;labelPosition=center;verticalLabelPosition=bottom;verticalAlign=top;outlineConnect=0;align=center;shape=mxgraph.office.concepts.book_journal;fontFamily=Architects Daughter;fontSource=https%3A%2F%2Ffonts.googleapis.com%2Fcss%3Ffamily%3DArchitects%2BDaughter;fontSize=8;fontColor=#ffffff;" vertex="1" parent="3a9ptMbxA-lgewEK3BO4-64">
          <mxGeometry width="20" height="27" as="geometry" />
        </mxCell>
        <mxCell id="3a9ptMbxA-lgewEK3BO4-63" value="" style="dashed=0;outlineConnect=0;html=1;align=center;labelPosition=center;verticalLabelPosition=bottom;verticalAlign=top;shape=mxgraph.weblogos.adobe_pdf;fillColor=#A60908;shadow=0;fontFamily=Architects Daughter;fontSource=https%3A%2F%2Ffonts.googleapis.com%2Fcss%3Ffamily%3DArchitects%2BDaughter;fontSize=8;fontColor=#ffffff;strokeColor=#7F00FF;strokeWidth=1;" vertex="1" parent="3a9ptMbxA-lgewEK3BO4-64">
          <mxGeometry x="4.730000000000004" y="6.32" width="15.27" height="14.37" as="geometry" />
        </mxCell>
      </root>
    </mxGraphModel>
  </diagram>
</mxfile>
